<svg width="104" height="104" viewBox="0 0 104 104" fill="none" xmlns="http://www.w3.org/2000/svg">
<path d="M75.3594 46.712L56.8019 49.6264C56.4848 48.8567 55.9872 48.1745 55.3511 47.6375C54.715 47.1004 53.959 46.7243 53.147 46.5407C52.335 46.3572 51.4907 46.3716 50.6855 46.5829C49.8803 46.7941 49.1376 47.1959 48.5203 47.7544L38.0557 40.5882C37.7889 40.4103 37.4628 40.3446 37.148 40.4055C36.8332 40.4664 36.555 40.6489 36.3739 40.9134C36.1927 41.178 36.1231 41.5033 36.1801 41.8188C36.2371 42.1344 36.4162 42.4147 36.6785 42.5991L47.1433 49.7656C46.8784 50.4612 46.7661 51.2056 46.8139 51.9484C46.8617 52.6912 47.0686 53.4151 47.4204 54.071C47.7722 54.727 48.2609 55.2997 48.8533 55.7504C49.4456 56.2011 50.1279 56.5193 50.8539 56.6835C51.58 56.8476 52.3328 56.8539 53.0614 56.7018C53.7901 56.5498 54.4776 56.243 55.0774 55.8022C55.6772 55.3614 56.1753 54.7969 56.538 54.1469C56.9007 53.4969 57.1195 52.7766 57.1797 52.0347L75.7386 49.12C75.8967 49.0951 76.0484 49.0393 76.1849 48.9558C76.3215 48.8723 76.4403 48.7627 76.5345 48.6333C76.6287 48.5039 76.6964 48.3572 76.7339 48.2016C76.7714 48.046 76.7779 47.8845 76.753 47.7264C76.7281 47.5683 76.6723 47.4166 76.5888 47.2801C76.5053 47.1435 76.3957 47.0248 76.2663 46.9306C76.1369 46.8364 75.9902 46.7686 75.8346 46.7311C75.679 46.6936 75.5175 46.6871 75.3594 46.712ZM52 54.3779C51.4532 54.3787 50.9185 54.2173 50.4635 53.9141C50.0085 53.611 49.6536 53.1796 49.4438 52.6747C49.234 52.1698 49.1787 51.614 49.2848 51.0776C49.391 50.5412 49.6539 50.0484 50.0402 49.6615C50.4265 49.2745 50.9189 49.0109 51.4551 48.9039C51.9914 48.7969 52.5472 48.8514 53.0525 49.0604C53.5577 49.2694 53.9896 49.6236 54.2935 50.0782C54.5974 50.5327 54.7596 51.0672 54.7597 51.614C54.7594 52.3462 54.4688 53.0485 53.9514 53.5666C53.434 54.0848 52.7322 54.3766 52 54.3779Z" fill="white"/>
<path d="M52 14.6082C31.6154 14.6082 15.0312 31.2092 15.0312 51.6143C15.0312 72.0194 31.6154 88.6202 52 88.6202C72.3846 88.6202 88.9688 72.0194 88.9688 51.6141C88.9688 31.2088 72.3846 14.6082 52 14.6082ZM82.8687 52.8125H86.4998C86.199 61.1225 82.9185 69.0469 77.2576 75.138L74.6891 72.5747C74.4584 72.3547 74.1507 72.2336 73.8319 72.2375C73.5131 72.2413 73.2085 72.3698 72.9832 72.5955C72.758 72.8211 72.63 73.1259 72.6267 73.4447C72.6233 73.7636 72.7449 74.071 72.9653 74.3013L75.5355 76.8725C69.4648 82.5646 61.5355 85.8613 53.2188 86.151V82.4828C53.2188 82.1596 53.0903 81.8496 52.8618 81.621C52.6332 81.3924 52.3232 81.264 52 81.264C51.6768 81.264 51.3668 81.3924 51.1382 81.621C50.9097 81.8496 50.7812 82.1596 50.7812 82.4828V86.151C42.4645 85.8618 34.5351 82.5655 28.4643 76.8737L31.0345 74.3031C31.263 74.0746 31.3914 73.7646 31.3914 73.4413C31.3914 73.1181 31.2629 72.8081 31.0344 72.5795C30.8058 72.351 30.4958 72.2226 30.1725 72.2226C29.8493 72.2226 29.5393 72.3511 29.3107 72.5796L26.7426 75.138C21.0816 69.047 17.801 61.1226 17.5002 52.8125H21.1313C21.4545 52.8125 21.7645 52.6841 21.9931 52.4556C22.2216 52.227 22.35 51.917 22.35 51.5938C22.35 51.2705 22.2216 50.9605 21.9931 50.732C21.7645 50.5034 21.4545 50.375 21.1313 50.375H17.5002C17.8011 42.071 21.0819 34.1531 26.7424 28.0699L29.3109 30.6435C29.4234 30.7585 29.5575 30.8502 29.7056 30.9131C29.8537 30.976 30.0128 31.009 30.1737 31.01C30.3346 31.0111 30.4941 30.9802 30.643 30.9192C30.7919 30.8582 30.9272 30.7683 31.0411 30.6546C31.155 30.541 31.2453 30.4059 31.3067 30.2572C31.368 30.1084 31.3993 29.949 31.3987 29.7881C31.398 29.6272 31.3655 29.468 31.3029 29.3197C31.2404 29.1715 31.1491 29.0371 31.0342 28.9244L28.4641 26.3545C34.535 20.6627 42.4645 17.3665 50.7812 17.0773V20.7458C50.7812 21.069 50.9097 21.379 51.1382 21.6076C51.3668 21.8361 51.6768 21.9645 52 21.9645C52.3232 21.9645 52.6332 21.8361 52.8618 21.6076C53.0903 21.379 53.2188 21.069 53.2188 20.7458V17.0773C61.5355 17.3666 69.465 20.663 75.5359 26.3549L72.9658 28.925C72.85 29.0376 72.7579 29.1721 72.6946 29.3206C72.6313 29.4691 72.5981 29.6287 72.597 29.7901C72.5959 29.9516 72.6269 30.1116 72.6881 30.261C72.7494 30.4103 72.8397 30.546 72.9539 30.6602C73.068 30.7744 73.2037 30.8647 73.3531 30.926C73.5024 30.9873 73.6625 31.0183 73.8239 31.0172C73.9853 31.0161 74.145 30.983 74.2935 30.9197C74.442 30.8564 74.5765 30.7642 74.6891 30.6485L77.2574 28.0699C82.9179 34.153 86.1989 42.071 86.4998 50.375H82.8687C82.5455 50.375 82.2355 50.5034 82.0069 50.732C81.7784 50.9605 81.6499 51.2705 81.6499 51.5938C81.6499 51.917 81.7784 52.227 82.0069 52.4556C82.2355 52.6841 82.5455 52.8125 82.8687 52.8125Z" fill="white"/>
<path d="M47.0618 28.6729C47.1437 28.6729 47.2253 28.6647 47.3056 28.6485C47.7005 28.5687 48.103 28.4978 48.5014 28.4385C48.8211 28.3906 49.1087 28.2177 49.3009 27.9579C49.4932 27.698 49.5743 27.3723 49.5264 27.0526C49.4786 26.7329 49.3057 26.4453 49.0458 26.2531C48.7859 26.0609 48.4603 25.9797 48.1406 26.0276C47.7007 26.0932 47.2564 26.1712 46.8203 26.2593C46.5239 26.319 46.2603 26.4867 46.0807 26.7298C45.901 26.9729 45.8181 27.2741 45.8481 27.575C45.8781 27.8758 46.0188 28.1547 46.2429 28.3576C46.467 28.5605 46.7585 28.6729 47.0608 28.6729H47.0618Z" fill="white"/>
<path d="M43.444 28.4489C43.3174 28.1515 43.0779 27.9166 42.7781 27.7958C42.4783 27.675 42.1428 27.6783 41.8454 27.8048C38.025 29.4308 34.65 31.9488 32.0032 35.1477C29.3563 38.3467 27.5147 42.1334 26.6327 46.1907C26.5975 46.3476 26.5937 46.51 26.6215 46.6685C26.6493 46.8269 26.7083 46.9783 26.7949 47.1139C26.8815 47.2495 26.9941 47.3665 27.1262 47.4584C27.2583 47.5502 27.4073 47.615 27.5645 47.6489C27.7218 47.6829 27.8842 47.6854 28.0424 47.6563C28.2006 47.6272 28.3515 47.567 28.4864 47.4793C28.6212 47.3916 28.7374 47.2781 28.8282 47.1452C28.9189 47.0124 28.9825 46.8629 29.0152 46.7054C29.8149 43.0297 31.4839 39.5991 33.8822 36.7011C36.2806 33.8032 39.3385 31.5221 42.7999 30.0491C42.9473 29.9865 43.081 29.8953 43.1932 29.781C43.3054 29.6666 43.3939 29.5312 43.4537 29.3826C43.5135 29.234 43.5435 29.075 43.5418 28.9148C43.5401 28.7546 43.5069 28.5963 43.444 28.4489Z" fill="white"/>
<path d="M75.4796 5.66712C75.3664 5.7803 75.2766 5.91468 75.2153 6.06257C75.154 6.21047 75.1225 6.36899 75.1225 6.52908C75.1225 6.68917 75.154 6.8477 75.2153 6.99559C75.2766 7.14349 75.3664 7.27787 75.4796 7.39105L84.9501 16.8617L82.007 19.9555C73.9105 12.2626 63.1686 7.9732 52.0001 7.9732C40.8316 7.9732 30.0897 12.2626 21.9932 19.9555L19.0503 16.8609L28.5208 7.39023C28.634 7.27705 28.7238 7.14268 28.7851 6.99478C28.8464 6.84688 28.8779 6.68836 28.8779 6.52827C28.8779 6.36818 28.8464 6.20966 28.7851 6.06176C28.7238 5.91386 28.634 5.77949 28.5208 5.66631C25.538 2.69327 21.4982 1.02393 17.2868 1.02408C13.0754 1.02423 9.03573 2.69387 6.05312 5.66712C3.07977 8.64976 1.41013 12.6895 1.41013 16.9011C1.41013 21.1126 3.07977 25.1523 6.05312 28.135C6.16628 28.2482 6.30063 28.3381 6.44851 28.3994C6.59639 28.4607 6.7549 28.4922 6.91498 28.4923C7.07505 28.4923 7.23355 28.4607 7.38143 28.3995C7.52931 28.3382 7.66367 28.2484 7.77684 28.1352L17.3266 18.5859L20.2741 21.6852C12.4965 29.9484 8.2408 40.9146 8.40846 52.2612C8.57612 63.6078 13.1539 74.4435 21.1723 82.4734C23.1403 84.4442 25.2907 86.2241 27.5945 87.7891L20.5664 94.8173C19.6927 95.7193 19.2086 96.9287 19.2187 98.1845C19.2288 99.4403 19.7321 100.642 20.6202 101.53C21.5083 102.418 22.7098 102.921 23.9656 102.931C25.2214 102.941 26.4307 102.457 27.3327 101.583L36.492 92.4234C46.4864 96.1988 57.5148 96.1988 67.5092 92.4234L76.6673 101.583C77.5657 102.475 78.7811 102.974 80.0471 102.972C81.3131 102.97 82.5267 102.466 83.4219 101.571C84.3171 100.675 84.821 99.4619 84.8233 98.1958C84.8256 96.9298 84.326 95.7145 83.434 94.816L76.4059 87.7879C78.7098 86.223 80.8602 84.4431 82.8281 82.4721C90.8465 74.4423 95.4243 63.6066 95.5919 52.26C95.7596 40.9134 91.5039 29.9472 83.7263 21.6839L86.6734 18.5859L96.2234 28.1358C96.3365 28.249 96.4709 28.3388 96.6188 28.4001C96.7667 28.4614 96.9252 28.4929 97.0853 28.4929C97.2454 28.4929 97.4039 28.4614 97.5518 28.4001C97.6997 28.3388 97.8341 28.249 97.9473 28.1358C100.917 25.1544 102.583 21.1165 102.579 16.9083C102.575 12.7001 100.901 8.6654 97.9257 5.68969C94.9501 2.71398 90.9155 1.04036 86.7073 1.03613C82.4991 1.0319 78.4612 2.6974 75.4796 5.66712ZM6.95358 25.5124C4.80515 22.934 3.69834 19.6455 3.8505 16.2928C4.00266 12.9401 5.40281 9.76538 7.77596 7.39218C10.1491 5.01897 13.3238 3.61876 16.6765 3.46653C20.0292 3.31429 23.3177 4.42104 25.8962 6.5694L6.95358 25.5124ZM25.6092 99.8611C25.169 100.301 24.572 100.549 23.9494 100.549C23.3268 100.549 22.7298 100.301 22.2895 99.8613C21.8493 99.4211 21.6019 98.824 21.6019 98.2015C21.6018 97.5789 21.8491 96.9818 22.2893 96.5416L29.6969 89.1312C31.1058 89.9733 32.5618 90.7342 34.0576 91.4102L25.6092 99.8611ZM81.7107 96.5416C81.9287 96.7596 82.1016 97.0183 82.2195 97.3031C82.3375 97.5879 82.3982 97.8932 82.3982 98.2014C82.3982 98.5097 82.3375 98.8149 82.2195 99.0997C82.1016 99.3845 81.9287 99.6433 81.7107 99.8613C81.4927 100.079 81.2339 100.252 80.9492 100.37C80.6644 100.488 80.3591 100.549 80.0508 100.549C79.7426 100.549 79.4373 100.488 79.1525 100.37C78.8678 100.252 78.609 100.079 78.391 99.8613L69.9422 91.4125C71.4382 90.7358 72.8942 89.9742 74.3031 89.1312L81.7107 96.5416ZM93.1592 51.614C93.1592 74.3335 74.6952 92.8173 52 92.8173C29.3048 92.8173 10.8408 74.3337 10.8408 51.614C10.8408 28.8943 29.3048 10.4107 52 10.4107C74.6952 10.4107 93.1592 28.8945 93.1592 51.614ZM97.0464 25.5104L78.1038 6.56758C80.6823 4.41921 83.9708 3.31246 87.3235 3.4647C90.6762 3.61693 93.8509 5.01714 96.224 7.39035C98.5972 9.76355 99.9973 12.9383 100.149 16.291C100.302 19.6437 99.1948 22.9322 97.0464 25.5106V25.5104Z" fill="white"/>
</svg>
