<svg width="104" height="104" viewBox="0 0 104 104" fill="none" xmlns="http://www.w3.org/2000/svg">
<path d="M46.4572 94.5418L74.0728 104L98.2504 79.8235L70.4439 70.5551L46.4572 94.5418ZM58.8923 93.0653C57.4296 94.5281 55.0461 95.1613 53.5669 94.479C52.0892 93.7967 52.0755 92.0589 53.5392 90.5961C55.0019 89.1334 57.3854 88.5002 58.8646 89.1825C60.3435 89.8648 60.3548 91.6026 58.8923 93.0653ZM67.8101 96.1891C66.3473 97.6518 63.9638 98.285 62.4846 97.6027C61.0069 96.9205 60.9932 95.1826 62.4569 93.7199C63.9208 92.2572 66.3032 91.624 67.7823 92.3062C69.2603 92.9885 69.2728 94.7264 67.8101 96.1891ZM85.7903 82.2022C87.253 80.7394 89.6366 80.1063 91.1157 80.7885C92.5934 81.4708 92.6072 83.2087 91.1447 84.6714C89.6822 86.1341 87.2984 86.7673 85.8192 86.085C84.3401 85.4027 84.3278 83.6649 85.7903 82.2022ZM76.8988 79.2794C78.3616 77.8167 80.7451 77.1835 82.2243 77.8658C83.702 78.5481 83.7157 80.2859 82.252 81.7486C80.7893 83.2114 78.4057 83.8445 76.9266 83.1623C75.4489 82.48 75.4363 80.7421 76.8988 79.2794ZM76.674 95.229C78.1517 95.9113 78.1655 97.6491 76.7018 99.1118C75.239 100.575 72.8555 101.208 71.3763 100.525C69.8971 99.8432 69.8849 98.1054 71.3473 96.6426C72.8113 95.1814 75.1949 94.5479 76.674 95.229ZM73.3063 74.7408C74.784 75.4231 74.7978 77.1609 73.3341 78.6237C71.8713 80.0864 69.4878 80.7196 68.0086 80.0373C66.5309 79.355 66.5172 77.6172 67.9809 76.1544C69.4436 74.6917 71.8274 74.0598 73.3063 74.7408Z" fill="white"/>
<path d="M98.6991 76.4823L89.5689 49.0903L62.1769 39.9589L71.3071 67.3496L98.6991 76.4823ZM78.3591 55.0038C79.3821 53.9809 81.4377 54.3768 82.9505 55.8898C84.4633 57.4028 84.8604 59.4585 83.8365 60.4812C82.8136 61.5041 80.7579 61.1082 79.2451 59.5952C77.7321 58.0824 77.335 56.0265 78.3591 55.0038Z" fill="white"/>
<path d="M33.1742 0L7.34772 12.9125L33.1739 25.825L58.9989 12.9125L33.1742 0ZM33.1742 15.5324C31.0355 15.5324 29.3001 14.3588 29.3001 12.9125C29.3001 11.465 31.0343 10.2926 33.1742 10.2926C35.314 10.2926 37.0482 11.4662 37.0482 12.9125C37.0467 14.36 35.3128 15.5324 33.1742 15.5324Z" fill="white"/>
<path d="M39.8126 49.5088C41.0466 49.054 42.0781 49.7738 42.435 51.1536L57.9021 35.6865L61.0447 36.7345V15.5915L34.8288 28.7V58.7598L37.4789 56.1097C37.2087 55.6308 37.0467 55.0102 37.0467 54.2751C37.0467 52.2055 38.2858 50.0718 39.8126 49.5088ZM56.6821 21.3189C58.2101 20.7559 59.4477 21.9762 59.4477 24.0443C59.4477 26.1125 58.2101 28.2462 56.6821 28.8092C55.1541 29.3722 53.9164 28.152 53.9164 26.0838C53.9161 24.0154 55.1541 21.8819 56.6821 21.3189ZM48.8008 34.8508C50.3288 34.2878 51.5665 35.5081 51.5665 37.5763C51.5665 39.6444 50.3288 41.7782 48.8008 42.3412C47.2728 42.9042 46.0351 41.6839 46.0351 39.6157C46.0351 37.5475 47.274 35.4138 48.8008 34.8508ZM37.0467 34.4022C37.0467 32.334 38.2844 30.2003 39.8124 29.6373C41.3404 29.0743 42.5781 30.2945 42.5781 32.3627C42.5781 34.4312 41.3404 36.5646 39.8124 37.1276C38.2846 37.6906 37.0467 36.4706 37.0467 34.4022Z" fill="white"/>
<path d="M5.3009 49.7814L31.1472 62.4402L31.5178 62.0696V28.7L5.3009 15.5915V49.7814ZM26.4702 49.5088C27.9982 50.0718 29.2358 52.2055 29.2358 54.2737C29.2358 56.3419 27.9982 57.5621 26.4702 56.9991C24.9422 56.4361 23.7045 54.3024 23.7045 52.2342C23.7045 50.166 24.9436 48.9458 26.4702 49.5088ZM18.4095 34.4324C19.9375 34.9954 21.1752 37.1289 21.1752 39.1973C21.1752 41.2655 19.9375 42.4857 18.4095 41.9227C16.8815 41.3597 15.6438 39.226 15.6438 37.1578C15.6435 35.0896 16.8827 33.8694 18.4095 34.4324ZM10.1134 21.3189C11.6414 21.8819 12.8791 24.0154 12.8791 26.0838C12.8791 28.152 11.6414 29.3723 10.1134 28.8092C8.58541 28.2462 7.34774 26.1128 7.34774 24.0443C7.34774 21.9762 8.58541 20.7559 10.1134 21.3189Z" fill="white"/>
<path d="M58.8345 40.4063L34.6568 64.5815L44.1162 92.1998L68.1029 68.2106L58.8345 40.4063ZM48.5092 83.0918C47.0465 84.5546 45.3074 84.542 44.6264 83.0629C43.9453 81.584 44.5773 79.2002 46.04 77.7374C47.5028 76.2747 49.2418 76.2872 49.9229 77.7652C50.6039 79.2431 49.972 81.6291 48.5092 83.0918ZM56.5763 54.4283C55.1136 55.891 53.3745 55.8783 52.6935 54.4006C52.0112 52.9229 52.6444 50.5379 54.1071 49.0751C55.5698 47.6124 57.3089 47.6252 57.99 49.1029C58.6725 50.5818 58.039 52.9656 56.5763 54.4283Z" fill="white"/>
</svg>
