<svg width="104" height="104" viewBox="0 0 104 104" fill="none" xmlns="http://www.w3.org/2000/svg">
<path d="M73.6459 35.0514L72.5331 31.3889C71.1196 27.2284 66.601 25.0018 62.4405 26.4153C60.1001 27.2105 58.2621 29.0484 57.4669 31.3889L56.3541 35.0514C55.4177 38.1402 55.2212 41.406 55.7804 44.5847C56.2904 47.261 57.9895 49.5603 60.398 50.8334L59.1517 78.6933C58.9849 80.2483 59.4893 81.8007 60.5384 82.9607C62.7946 85.4286 66.6244 85.6002 69.0922 83.344C69.2257 83.222 69.3535 83.0942 69.4755 82.9607C70.5012 81.8336 71.0047 80.3267 70.8622 78.8094L69.609 50.8299C72.0142 49.5562 73.7105 47.2584 74.2196 44.5847C74.7788 41.406 74.5823 38.1402 73.6459 35.0514ZM70.805 43.9815C70.4297 45.9042 69.0595 47.4818 67.2083 48.1225C66.5056 48.3866 66.053 49.073 66.0868 49.8229L67.4042 79.0833C67.4648 79.6572 67.2755 80.2294 66.8842 80.6537C65.8405 81.6869 64.1596 81.6869 63.1159 80.6537C62.7051 80.1952 62.5185 79.5781 62.6063 78.9689L63.9132 49.8229C63.947 49.073 63.4944 48.3866 62.7918 48.1225C60.9406 47.4818 59.5703 45.9042 59.1951 43.9815C58.7314 41.3425 58.8948 38.6314 59.6717 36.0671L60.7845 32.4029C61.6456 30.0748 64.2309 28.8855 66.5592 29.7465C67.79 30.2018 68.7603 31.1722 69.2155 32.4029L70.3283 36.0671C71.1044 38.6316 71.2678 41.3425 70.805 43.9815Z" fill="white"/>
<path d="M46.8 26C45.8428 26 45.0667 26.7761 45.0667 27.7333V42.6157L40.3745 47.3079C40.0274 47.6537 39.8428 48.1305 39.8667 48.62L41.3833 78.9533C41.4195 79.6074 41.182 80.2473 40.7281 80.7196C39.7793 81.6768 38.2341 81.6838 37.2766 80.7348C37.2714 80.7298 37.2664 80.7246 37.2615 80.7196C36.8073 80.2473 36.5701 79.6074 36.6063 78.9533L38.1333 48.62C38.1576 48.1308 37.9736 47.6541 37.6272 47.3079L32.9333 42.6157V27.7333C32.9333 26.7761 32.1572 26 31.2 26C30.2428 26 29.4667 26.7761 29.4667 27.7333V43.3333C29.4667 43.7931 29.6495 44.2338 29.9745 44.5588L34.6303 49.2163L33.1517 78.7852C32.9944 82.015 35.4852 84.7611 38.7151 84.9184C41.9449 85.0757 44.691 82.5849 44.8483 79.355C44.8576 79.1652 44.8576 78.9752 44.8483 78.7854L43.3697 49.2165L48.0255 44.559C48.3505 44.234 48.5333 43.7933 48.5333 43.3336V27.7336C48.5333 26.7761 47.7572 26 46.8 26Z" fill="white"/>
<path d="M36.4 26C35.4428 26 34.6667 26.7761 34.6667 27.7333V41.6C34.6667 42.5572 35.4428 43.3333 36.4 43.3333C37.3572 43.3333 38.1333 42.5572 38.1333 41.6V27.7333C38.1333 26.7761 37.3572 26 36.4 26Z" fill="white"/>
<path d="M41.6 26C40.6428 26 39.8667 26.7761 39.8667 27.7333V41.6C39.8667 42.5572 40.6428 43.3333 41.6 43.3333C42.5572 43.3333 43.3333 42.5572 43.3333 41.6V27.7333C43.3333 26.7761 42.5572 26 41.6 26Z" fill="white"/>
<path d="M52 0C23.2813 0 0 23.2813 0 52C0 80.7187 23.2813 104 52 104C80.7187 104 104 80.7187 104 52C103.967 23.2947 80.7053 0.0325 52 0ZM52 100.533C25.1957 100.533 3.46667 78.8043 3.46667 52C3.46667 25.1957 25.1957 3.46667 52 3.46667C78.8043 3.46667 100.533 25.1957 100.533 52C100.503 78.7915 78.7915 100.503 52 100.533Z" fill="white"/>
<path d="M57.6266 84.5373C57.5337 83.5846 56.6859 82.8876 55.733 82.9805C55.7106 82.9827 55.6883 82.9853 55.666 82.9883L55.6729 82.9866C53.2326 83.27 50.7674 83.27 48.3271 82.9866C47.3759 82.875 46.5147 83.5555 46.4031 84.5067C46.2915 85.4579 46.972 86.3191 47.9232 86.4307C50.6296 86.7468 53.3635 86.7468 56.0699 86.4307C57.0226 86.338 57.7196 85.4902 57.6266 84.5373Z" fill="white"/>
<path d="M78.52 29.6643C77.9049 28.9308 76.8116 28.8349 76.0782 29.4502C76.0758 29.4521 76.0734 29.4543 76.0708 29.4563C75.3391 30.0733 75.2459 31.1666 75.8628 31.8985C86.3137 44.3049 85.5142 62.6498 74.0237 74.1C73.3456 74.7758 73.3436 75.8736 74.0194 76.5518C74.6952 77.23 75.793 77.2319 76.4712 76.5561C89.2409 63.835 90.1314 43.4505 78.52 29.6643Z" fill="white"/>
<path d="M40.3839 22.9121C40.383 22.9121 40.382 22.9109 40.3811 22.9109C40.3795 22.9109 40.378 22.9121 40.3763 22.9121H40.3839Z" fill="white"/>
<path d="M60.1761 18.3023C53.402 16.6788 46.2975 17.1151 39.7731 19.5555C38.8769 19.8924 38.4239 20.8921 38.7608 21.788C39.0147 22.4633 39.6604 22.9103 40.3817 22.911C40.589 22.9099 40.7944 22.872 40.9881 22.7985C46.8637 20.6013 53.2614 20.2089 59.3615 21.6719C60.2921 21.8968 61.2287 21.325 61.4536 20.3944C61.6785 19.4638 61.1067 18.5272 60.1761 18.3023Z" fill="white"/>
<path d="M29.8983 74.0133C24.055 68.1799 20.7801 60.2567 20.8 51.9999C20.7829 45.4033 22.8724 38.9735 26.7644 33.6474C27.3397 32.8821 27.1856 31.7955 26.4203 31.2203C25.6551 30.645 24.5685 30.7991 23.9932 31.5644C23.9831 31.578 23.9731 31.5917 23.9633 31.6055C13.9418 45.3829 15.4165 64.4 27.4421 76.4677C28.1199 77.1458 29.2192 77.1463 29.8974 76.4685C30.5756 75.7908 30.576 74.6914 29.8983 74.0133Z" fill="white"/>
</svg>
