<svg width="104" height="104" viewBox="0 0 104 104" fill="none" xmlns="http://www.w3.org/2000/svg">
<g clip-path="url(#clip0)">
<path d="M102.417 86.3222C100.997 83.8643 98.7899 82.0407 96.1407 81.1086C100.139 78.3607 102.183 73.2928 100.857 68.3459C99.1762 62.0711 92.7028 58.3346 86.4294 60.0155L84.3842 60.5636C85.6504 57.383 86.4328 54.0393 86.7152 50.576C86.8064 49.4581 85.974 48.4778 84.8558 48.3866C83.7369 48.2946 82.7575 49.1278 82.6665 50.2459C82.3307 54.3627 81.1969 58.2881 79.2946 61.9273L69.3517 64.5915C69.4975 63.6755 69.5755 62.746 69.5755 61.8058C69.5755 58.544 68.7021 56.6331 67.8578 54.7853C66.8938 52.6758 65.8971 50.4948 65.8971 45.4309C65.8971 44.6211 65.4159 43.8884 64.6728 43.5667C63.93 43.2452 63.0665 43.3953 62.4759 43.9502C60.5258 45.7811 59.2705 47.7639 58.4692 49.6502C57.8713 48.8184 57.1453 48.0115 56.2646 47.2805C54.1933 45.5609 53.8506 43.7849 55.0431 40.9457C55.3675 40.1735 55.1844 39.2814 54.5824 38.6991C53.9802 38.1167 53.0828 37.964 52.3215 38.314C48.219 40.2017 45.9529 42.8934 44.7299 45.5528C44.7635 45.3397 44.8031 45.1244 44.8496 44.9065C45.0498 43.9707 44.5699 43.022 43.6971 42.6291C42.8243 42.2361 41.7957 42.5063 41.2282 43.2767C36.3322 49.9228 34.4247 55.1178 34.4247 61.8056C34.4247 62.7458 34.5027 63.6753 34.6485 64.5913L24.7081 61.9279C22.432 57.5638 21.2308 52.6669 21.2308 47.7088C21.2308 42.2014 22.6457 39.1053 24.284 35.5199C26.1555 31.4245 28.2389 26.866 28.8291 18.2206C32.7829 23.3533 34.2102 28.7355 34.6762 32.6718C34.7832 33.5771 35.4807 34.3002 36.3815 34.4402C37.2825 34.5803 38.1661 34.1028 38.5429 33.2725C40.6223 28.6906 43.48 24.871 47.0363 21.919C50.4787 19.0617 52.4666 15.9139 53.1135 12.2954C53.4525 10.3989 53.4111 8.39659 52.9827 6.24865C59.2031 10.3459 62.7909 16.1436 63.6679 23.5388C64.4812 30.3945 62.5736 36.15 62.5553 36.204C62.2463 37.1091 62.6107 38.1072 63.4301 38.6006C64.2493 39.0933 65.302 38.9485 65.957 38.2518C66.3198 37.8663 73.3919 30.1928 73.9246 18.5702C77.1777 23.6885 79.3453 28.271 80.7377 32.8922C81.0615 33.9659 82.1942 34.5746 83.2687 34.2509C84.3426 33.9273 84.9509 32.7941 84.6273 31.7203C82.5562 24.8464 78.9442 18.1319 72.9156 9.94778C72.3478 9.17696 71.3195 8.90702 70.4467 9.30025C69.5739 9.69307 69.0937 10.6416 69.294 11.5776C70.417 16.8252 69.9592 22.0684 67.9342 27.1873C67.9386 25.9278 67.8771 24.5962 67.7207 23.2195C66.8977 15.9736 63.2213 6.09571 50.3798 0.187099C49.6185 -0.162664 48.7209 -0.0101249 48.1189 0.572408C47.5167 1.15453 47.3337 2.04682 47.6582 2.81926C50.563 9.7343 49.601 14.5118 44.4419 18.7938C41.7953 20.9905 39.4949 23.6003 37.5661 26.589C36.1884 21.8932 33.4991 16.5074 28.3522 11.6751C27.7617 11.1206 26.8983 10.9701 26.1553 11.2916C25.4119 11.6133 24.9309 12.3457 24.9309 13.1558C24.9309 24.332 22.7239 29.1616 20.5896 33.832C18.8304 37.6815 17.1689 41.3176 17.1689 47.7092C17.1689 52.1229 18.0108 56.4952 19.6242 60.566L17.5713 60.016C11.2969 58.3342 4.8242 62.0717 3.14302 68.3463C1.81749 73.293 3.86123 78.3609 7.85955 81.109C5.21052 82.0411 3.00307 83.8649 1.58391 86.3226C0.0105859 89.0478 -0.407424 92.2226 0.407066 95.262C1.22156 98.3017 3.17085 100.842 5.89583 102.416C7.71127 103.464 9.72556 103.999 11.7671 103.999C12.7902 103.999 13.8206 103.864 14.8353 103.592L52.0006 93.6339L89.1659 103.592C90.1809 103.864 91.2107 103.999 92.234 103.999C94.2753 103.999 96.29 103.463 98.1052 102.416C100.83 100.842 102.78 98.3017 103.594 95.262C104.408 92.2222 103.99 89.0473 102.417 86.3222ZM87.4807 63.9395C91.5909 62.839 95.832 65.2866 96.9337 69.3972C97.4672 71.3888 97.1932 73.4687 96.1626 75.2542C95.1318 77.0396 93.4671 78.3168 91.476 78.8504L22.3766 97.3655C23.6227 94.8138 23.907 91.933 23.1648 89.1635C22.4227 86.3939 20.736 84.0414 18.3811 82.4547L87.4807 63.9395ZM38.4866 61.806C38.4866 57.9227 39.2166 54.6811 41.0138 51.178C42.0632 55.3002 44.4576 57.8973 44.6073 58.0563C45.2605 58.7512 46.3081 58.8939 47.1269 58.4053C47.9456 57.9166 48.3129 56.9201 48.0115 56.0154C47.9012 55.6845 45.8038 49.1418 50.3432 44.5216C50.5398 46.7613 51.6503 48.7299 53.6698 50.4066C56.25 52.548 56.9544 55.7897 57.1419 57.1679C57.1725 57.7041 57.2229 58.0346 57.2331 58.0965C57.4041 59.1515 58.3616 59.8961 59.4277 59.7935C60.4916 59.6938 61.2966 58.7865 61.2683 57.7181C61.2669 57.6594 61.2549 57.3034 61.1836 56.7415C61.1363 55.6423 61.217 53.4214 62.3097 51.0027C62.7797 53.447 63.5201 55.0669 64.1629 56.4736C64.9467 58.1889 65.513 59.4283 65.513 61.8058C65.513 63.1665 65.3103 64.4985 64.9163 65.7799L51.9998 69.241L39.0834 65.7799C38.6893 64.4985 38.4866 63.1665 38.4866 61.806ZM7.06598 69.3972C8.16747 65.2866 12.4087 62.8384 16.5189 63.9395L44.1521 71.3439L33.165 74.2878L18.4479 70.3443C17.3639 70.0537 16.2504 70.6969 15.9602 71.7806C15.6697 72.864 16.3128 73.9777 17.3964 74.2681L25.3175 76.3904L14.3308 79.3344L12.5239 78.8502C8.41283 77.7489 5.96449 73.508 7.06598 69.3972ZM7.92637 98.897C6.14099 97.8662 4.86381 96.2017 4.33023 94.2103C3.79664 92.2188 4.07044 90.1389 5.10125 88.3535C6.13206 86.5679 7.79638 85.2909 9.78792 84.7574C10.4529 84.5792 11.1277 84.4911 11.7981 84.4911C13.1355 84.4911 14.4555 84.8421 15.6447 85.5284C17.4301 86.5592 18.7075 88.2237 19.2411 90.2148C19.7747 92.2064 19.5009 94.2863 18.4701 96.0719C17.4392 97.8572 15.7747 99.1344 13.7834 99.668C11.7918 100.201 9.71175 99.9276 7.92637 98.897ZM82.5669 85.4431C81.7862 86.5572 81.1975 87.8104 80.835 89.1635C80.0928 91.933 80.3774 94.8138 81.6235 97.3655L59.8476 91.5306L82.5669 85.4431ZM99.6694 94.2103C99.1358 96.2017 97.8586 97.8662 96.0733 98.897C94.2875 99.9276 92.2076 100.202 90.2162 99.668C88.2249 99.1344 86.5606 97.8572 85.5298 96.0719C84.499 94.2863 84.2252 92.2064 84.7588 90.2148C85.2923 88.2235 86.5693 86.5592 88.3547 85.5284C89.5439 84.8419 90.864 84.4911 92.2015 84.4911C92.872 84.4911 93.5467 84.5794 94.2117 84.7574C96.2033 85.2909 97.8676 86.5679 98.8984 88.3535C99.9292 90.1389 100.203 92.2188 99.6694 94.2103Z" fill="white"/>
<path d="M49.5178 80L31.468 84.8364C30.3843 85.1268 29.7413 86.2405 30.0317 87.3239C30.2749 88.2314 31.0954 88.83 31.9924 88.83C32.1663 88.83 32.3434 88.8075 32.5195 88.7601L50.5693 83.9236C51.6527 83.6331 52.2958 82.5194 52.0055 81.436C51.7153 80.3526 50.601 79.7093 49.5178 80Z" fill="white"/>
<path d="M61.4857 76.7932C60.402 77.0837 59.759 78.1974 60.0494 79.2808C60.2926 80.1883 61.1131 80.7869 62.0101 80.7869C62.184 80.7869 62.3611 80.7643 62.537 80.717L86.6032 74.2685C87.6868 73.9781 88.3299 72.8644 88.0395 71.781C87.749 70.6976 86.6353 70.0543 85.5519 70.3447L61.4857 76.7932Z" fill="white"/>
<path d="M83.0398 39.8341C82.6601 40.2119 82.4446 40.7359 82.4446 41.2721C82.4446 41.8063 82.6601 42.3283 83.0398 42.7081C83.4176 43.0859 83.9398 43.3033 84.4758 43.3033C85.01 43.3033 85.532 43.0861 85.9118 42.7081C86.2894 42.3283 86.5069 41.8061 86.5069 41.2721C86.5069 40.7359 86.2896 40.2139 85.9118 39.8341C85.534 39.4565 85.0098 39.241 84.4758 39.241C83.9398 39.241 83.4157 39.4565 83.0398 39.8341Z" fill="white"/>
</g>
<defs>
<clipPath id="clip0">
<rect width="104" height="104" fill="white"/>
</clipPath>
</defs>
</svg>
