<svg width="31" height="31" viewBox="0 0 31 31" fill="none" xmlns="http://www.w3.org/2000/svg">
<path d="M22.0922 30.3319H22.1346C22.9354 30.3319 23.6923 30.0164 24.2656 29.4431L28.3788 25.3299C28.5197 25.1892 28.6316 25.0221 28.7079 24.8381C28.7842 24.6541 28.8235 24.4568 28.8235 24.2576C28.8235 24.0585 28.7842 23.8612 28.7079 23.6772C28.6316 23.4932 28.5197 23.3261 28.3788 23.1854L22.3121 17.1187C22.1714 16.9777 22.0042 16.8659 21.8202 16.7896C21.6362 16.7133 21.439 16.674 21.2398 16.674C21.0406 16.674 20.8434 16.7133 20.6594 16.7896C20.4754 16.8659 20.3082 16.9777 20.1675 17.1187L17.7499 19.5362C16.6291 19.2026 14.5376 18.4442 13.2121 17.1187C11.8865 15.7931 11.1281 13.7016 10.7945 12.5808L13.2121 10.1632C13.353 10.0225 13.4649 9.85534 13.5412 9.67135C13.6175 9.48735 13.6567 9.29012 13.6567 9.09093C13.6567 8.89174 13.6175 8.69451 13.5412 8.51051C13.4649 8.32652 13.353 8.15937 13.2121 8.01864L7.14537 1.95196C6.85542 1.67828 6.4718 1.52582 6.07308 1.52582C5.67437 1.52582 5.29075 1.67828 5.00079 1.95196L0.889098 6.06517C0.312763 6.64151 -0.0118049 7.43321 0.000328428 8.24159C0.0352119 10.4013 0.606997 17.9028 6.51898 23.8148C12.431 29.7268 19.9324 30.297 22.0922 30.3319ZM6.0746 5.16882L9.99671 9.09093L8.03566 11.052C7.85719 11.23 7.7261 11.4497 7.65431 11.6913C7.58252 11.9329 7.57232 12.1886 7.62464 12.4352C7.66104 12.6096 8.55132 16.7456 11.069 19.2632C13.5867 21.7809 17.7226 22.6712 17.8971 22.7076C18.1436 22.7602 18.3994 22.7501 18.641 22.6783C18.8827 22.6065 19.1024 22.4753 19.2803 22.2966L21.2413 20.3355L25.1634 24.2576L22.121 27.2986C20.2282 27.2667 13.752 26.7586 8.66356 21.6687C3.55844 16.5636 3.06401 10.0646 3.03367 8.20974L6.0746 5.16882ZM27.2989 13.6485H30.3322C30.3322 5.868 24.4582 0 16.667 0V3.03334C22.8278 3.03334 27.2989 7.49691 27.2989 13.6485Z" fill="white"/>
<path d="M16.6823 9.09987C19.8718 9.09987 21.2323 10.4603 21.2323 13.6499H24.2656C24.2656 8.75862 21.5735 6.06653 16.6823 6.06653V9.09987Z" fill="white"/>
</svg>
