<svg width="37" height="37" viewBox="0 0 37 37" fill="none" xmlns="http://www.w3.org/2000/svg">
<path d="M11.8421 17.0535C10.9308 16.7911 10.0195 16.658 9.13309 16.658C7.76422 16.658 6.622 16.9708 5.73633 17.3539C6.59018 14.228 8.64135 8.83431 12.7274 8.2269C13.1058 8.17062 13.4159 7.897 13.5192 7.52868L14.4122 4.33447C14.4875 4.06434 14.4429 3.7752 14.2888 3.54077C14.1347 3.30635 13.8871 3.14994 13.6096 3.1119C13.308 3.07076 13.0006 3.0498 12.696 3.0498C7.79139 3.0498 2.93415 8.16907 0.884523 15.4991C-0.318628 19.7994 -0.671423 26.2647 2.29221 30.3341C3.95062 32.6111 6.37012 33.8271 9.48356 33.9486C9.49637 33.949 9.50879 33.9494 9.5216 33.9494C13.3631 33.9494 16.7696 31.3622 17.8059 27.6584C18.4249 25.4442 18.1451 23.1221 17.0172 21.1182C15.9014 19.1369 14.0637 17.6927 11.8421 17.0535Z" fill="#F46E6E"/>
<path d="M35.8892 21.1186C34.7734 19.1369 32.9357 17.6927 30.7141 17.0535C29.8028 16.7911 28.8915 16.658 28.0055 16.658C26.6366 16.658 25.494 16.9708 24.6083 17.3539C25.4622 14.228 27.5133 8.83431 31.5998 8.2269C31.9782 8.17062 32.2879 7.897 32.3915 7.52868L33.2846 4.33447C33.3599 4.06434 33.3152 3.7752 33.1612 3.54077C33.0075 3.30635 32.7599 3.14994 32.482 3.1119C32.1808 3.07076 31.8734 3.0498 31.5683 3.0498C26.6638 3.0498 21.8065 8.16907 19.7565 15.4991C18.5538 19.7994 18.201 26.2647 21.165 30.3348C22.823 32.6115 25.2429 33.8279 28.3559 33.949C28.3687 33.9494 28.3812 33.9498 28.3944 33.9498C32.2355 33.9498 35.6424 31.3626 36.6786 27.6588C37.2969 25.4446 37.0167 23.1221 35.8892 21.1186Z" fill="#F46E6E"/>
</svg>
