<svg width="37" height="30" viewBox="0 0 37 30" fill="none" xmlns="http://www.w3.org/2000/svg">
<path d="M35.6786 0H1.32143C0.590513 0 0 0.609375 0 1.36364V28.6364C0 29.3906 0.590513 30 1.32143 30H35.6786C36.4095 30 37 29.3906 37 28.6364V1.36364C37 0.609375 36.4095 0 35.6786 0ZM34.0268 4.72159V26.9318H2.97321V4.72159L1.83348 3.8054L3.45636 1.65341L5.22377 3.07244H31.7804L33.5478 1.65341L35.1706 3.8054L34.0268 4.72159ZM31.7804 3.06818L18.5 13.7216L5.21964 3.06818L3.45223 1.64915L1.82935 3.80114L2.96908 4.71733L17.0753 16.0355C17.481 16.3607 17.9801 16.5373 18.4938 16.5373C19.0075 16.5373 19.5066 16.3607 19.9123 16.0355L34.0268 4.72159L35.1665 3.8054L33.5436 1.65341L31.7804 3.06818Z" fill="white"/>
</svg>
